<svg id="Layer_1" data-name="Layer 1" xmlns="http://www.w3.org/2000/svg" viewBox="0 0 528.34 148.3"><defs><style>.cls-1,.cls-4,.cls-5,.cls-7,.cls-8{fill:none;}.cls-2,.cls-4,.cls-5,.cls-6,.cls-7,.cls-8{stroke:#231f20;stroke-miterlimit:10;}.cls-2{stroke-width:0.95px;}.cls-3{fill:#231f20;}.cls-4{stroke-width:1.1px;}.cls-5,.cls-6,.cls-7{stroke-width:1.34px;}.cls-6{fill:#ff8a35;}.cls-7,.cls-8{stroke-linecap:round;}.cls-8{stroke-width:0.99px;}.cls-9{fill:#00b9d4;}.cls-10{fill:#e90d00;}.cls-11{fill:#8d0d00;}</style></defs><path d="M372.38,261.48v50.11a104.64,104.64,0,0,0,.43,10.7H364.3l-.43-7.19h-.22c-2.91,4.62-9.26,8.14-17.77,8.14-12.61,0-22.3-8.48-22.3-21.07-.11-13.79,10.66-22.27,23.37-22.27,8,0,13.36,3,15.73,6.34h.22V261.48Zm-9.48,36.23a10.86,10.86,0,0,0-.43-3.17c-1.4-4.79-6.58-8.73-13.69-8.73-9.8,0-15.62,6.85-15.62,16,0,8.4,5.17,15.33,15.41,15.33,6.36,0,12.17-3.34,13.9-9a10.61,10.61,0,0,0,.43-3.25Z" transform="translate(-166 -231.94)"/><path d="M450.79,268.88c.11,2.56-2.26,4.6-6.05,4.6-3.35,0-5.72-2-5.72-4.6s2.48-4.68,5.94-4.68S450.79,266.25,450.79,268.88Zm-10.58,52.75V280.45h9.5v41.18Z" transform="translate(-166 -231.94)"/><path d="M460.09,291.6c0-4.25-.11-7.74-.44-11.15h8.43l.54,6.81h.22c2.59-3.91,8.65-7.74,17.29-7.74,7.24,0,18.48,3.4,18.48,17.53v24.58H495.1V297.9c0-6.64-3.13-12.17-12.1-12.17-6.27,0-11.13,3.49-12.75,7.66a8.53,8.53,0,0,0-.65,3.49v24.75h-9.51Z" transform="translate(-166 -231.94)"/><path d="M559.83,261.23V311a103.21,103.21,0,0,0,.43,10.63h-8.54l-.43-7.14h-.22c-2.91,4.59-9.29,8.08-17.83,8.08-12.64,0-22.37-8.42-22.37-20.93-.1-13.7,10.7-22.12,23.45-22.12,8,0,13.4,3,15.78,6.29h.22V261.23Zm-9.51,36a10.33,10.33,0,0,0-.44-3.15c-1.4-4.77-6.59-8.68-13.72-8.68-9.83,0-15.67,6.81-15.67,15.91,0,8.34,5.19,15.23,15.45,15.23,6.38,0,12.22-3.32,13.94-8.93a10.24,10.24,0,0,0,.44-3.24Z" transform="translate(-166 -231.94)"/><path d="M575.49,302.41c.22,10.12,8.43,14.29,17.94,14.29a42.54,42.54,0,0,0,14.48-2.13l1.62,5.36a52.36,52.36,0,0,1-17.4,2.56c-16.1,0-25.71-8.34-25.71-20.76s9.29-22.21,24.53-22.21c17.07,0,21.61,11.83,21.61,19.4a22.08,22.08,0,0,1-.33,3.49Zm27.88-5.36c.11-4.77-2.48-12.17-13.18-12.17-9.62,0-13.83,7-14.59,12.17Z" transform="translate(-166 -231.94)"/><path d="M618.93,293.3c0-4.85-.11-9-.43-12.85h8.32l.32,8.09h.44a15.51,15.51,0,0,1,14.48-9,13,13,0,0,1,2.7.25v7.07a18,18,0,0,0-3.24-.26c-6.7,0-11.46,4-12.75,9.62a16.44,16.44,0,0,0-.44,3.48v21.95h-9.4Z" transform="translate(-166 -231.94)"/><path class="cls-1" d="M168.67,277.91l-.18,0c-1.39.41-2.49,5.63-2.49,12h0" transform="translate(-166 -231.94)"/><path class="cls-1" d="M263.05,282.8l-1.09-.58A2,2,0,0,1,263.05,282.8Z" transform="translate(-166 -231.94)"/><path class="cls-2" d="M284.9,279.71c-.24,1-3.2-.27-5.72,1.77-2.8,2.28-3.22,7.08-3.13,10.86a3,3,0,0,1-2.25-.59,4.21,4.21,0,0,1-1.4-3.75c-2.71.59-4-.37-4.51-.79a5.72,5.72,0,0,1-1.62-3.21,5.89,5.89,0,0,1-1.69,3.48c-.47.42-1.8,1.38-4.51.79a4.18,4.18,0,0,1-1.39,3.75,3,3,0,0,1-2.25.6c.09-3.79-.33-8.59-3.13-10.86-2.52-2.05-5.48-.82-5.72-1.78-.48-1.91,10.14-10.92,15.62-6.32a10.31,10.31,0,0,1,3,6.08,10.47,10.47,0,0,1,3.06-6.35C274.76,268.79,285.38,277.8,284.9,279.71Z" transform="translate(-166 -231.94)"/><ellipse class="cls-1" cx="129.82" cy="68.95" rx="14.33" ry="17.12"/><path class="cls-3" d="M295.82,277.69a19.37,19.37,0,0,0-15.21,7.75,23.78,23.78,0,0,0-2.73,4.41,25.55,25.55,0,0,0-2.46,11c0,12.81,9.13,23.2,20.4,23.2s20.39-10.39,20.39-23.2S307.08,277.69,295.82,277.69Zm0,39.5c-7.92,0-14.33-7.29-14.33-16.3a18,18,0,0,1,1.68-7.67,16.19,16.19,0,0,1,3.28-4.66,13.27,13.27,0,0,1,9.37-4c7.91,0,14.33,7.3,14.33,16.3S303.73,317.19,295.82,317.19Z" transform="translate(-166 -231.94)"/><path class="cls-4" d="M284.86,302.63c0-7.69,4.61-13.91,10.32-13.91" transform="translate(-166 -231.94)"/><path class="cls-5" d="M238.88,369.47c17.35,11.22,34.73,12.29,48.64,7.12" transform="translate(-166 -231.94)"/><path class="cls-5" d="M312.55,354.11l-.09.18" transform="translate(-166 -231.94)"/><path class="cls-6" d="M312.46,354.29h0a45.23,45.23,0,0,1-24.94,22.29c.07-2.32,1.88-4.93,3.4-11.17.88-3.62.88-6.95.88-13.62,0-7.69-.74-8.54.33-11.35,1.7-4.45,5.32-6.93,8.18-8.9,3.25-2.24,6.22-4.27,8.86-3.31,3,1.09,3.93,5.47,4.44,8A38.8,38.8,0,0,1,312.46,354.29Z" transform="translate(-166 -231.94)"/><path class="cls-7" d="M234.76,377.38c3.19-8.72,7.18-15.27,8.91-14.63" transform="translate(-166 -231.94)"/><path class="cls-8" d="M316.21,362a18.43,18.43,0,0,0-3.12-10.21" transform="translate(-166 -231.94)"/><path class="cls-5" d="M301.35,368.51a94.3,94.3,0,0,0,1.36-22.27" transform="translate(-166 -231.94)"/><path class="cls-9" d="M319.88,340.89c-.57-.21-.53-2.25.13-3.88a7.64,7.64,0,0,1,4-3.92c1.91-.83,5-1.28,5.69-.07.49.85-.22,2.4-1.19,3.32-1.78,1.68-3.65.44-6.08,2.11C320.79,339.6,320.38,341.08,319.88,340.89Z" transform="translate(-166 -231.94)"/><path class="cls-9" d="M322.64,343.68c-.25-.17,0-1.15.56-1.86a3.87,3.87,0,0,1,2.46-1.37c1-.15,2.57,0,2.75.71.13.47-.42,1.13-1,1.44-1.08.59-1.82-.26-3.21.24C323.24,343.18,322.86,343.84,322.64,343.68Z" transform="translate(-166 -231.94)"/><path class="cls-10" d="M694.34,261.3c0,.71,0,1.4-.06,2.1a33.64,33.64,0,0,1-3,12.06,30.37,30.37,0,0,0-5.68,8.29c-.06.12-.12.23-.17.35-10.3,21.21-11.92,42.79-14.74,42.84s-3.81-21.72-15.7-42.26c-.44-.77-.9-1.53-1.37-2.3a46.73,46.73,0,0,0-5.39-7.18,33.92,33.92,0,0,1-2.92-13.9v-.38c.18-16,11.08-29,24.5-29S694.34,245.09,694.34,261.3Z" transform="translate(-166 -231.94)"/><circle class="cls-11" cx="503.85" cy="28.78" r="4.87"/><ellipse class="cls-1" cx="68.76" cy="68.95" rx="14.33" ry="17.12"/><path class="cls-3" d="M234.76,277.69a19.37,19.37,0,0,0-15.21,7.75,23.78,23.78,0,0,0-2.73,4.41,25.55,25.55,0,0,0-2.46,11c0,12.81,9.13,23.2,20.4,23.2s20.39-10.39,20.39-23.2S246,277.69,234.76,277.69Zm0,39.5c-7.92,0-14.33-7.29-14.33-16.3a18,18,0,0,1,1.68-7.67,16.19,16.19,0,0,1,3.28-4.66,13.27,13.27,0,0,1,9.37-4c7.91,0,14.33,7.3,14.33,16.3S242.67,317.19,234.76,317.19Z" transform="translate(-166 -231.94)"/><path class="cls-4" d="M223.8,302.63c0-7.69,4.61-13.91,10.32-13.91" transform="translate(-166 -231.94)"/><path d="M170.44,263.91h39.11v6.25H179.81v19.19h27.47v6.16H179.81v26.12h-9.37Z" transform="translate(-166 -231.94)"/><path d="M397.41,263.91h39.1v6.25H406.78v19.19h27.47v6.16H406.78v26.12h-9.37Z" transform="translate(-166 -231.94)"/></svg>